# Blender 4.0.2
# www.blender.org
mtllib GrassCube.mtl
o Cube
v 1.000000 1.000000 -1.000000
v 1.000000 -1.000000 -1.000000
v 1.000000 1.000000 1.000000
v 1.000000 -1.000000 1.000000
v -1.000000 1.000000 -1.000000
v -1.000000 -1.000000 -1.000000
v -1.000000 1.000000 1.000000
v -1.000000 -1.000000 1.000000
vn -0.0000 1.0000 -0.0000
vn -0.0000 -0.0000 1.0000
vn -1.0000 -0.0000 -0.0000
vn -0.0000 -1.0000 -0.0000
vn 1.0000 -0.0000 -0.0000
vn -0.0000 -0.0000 -1.0000
vt 0.503870 0.668750
vt 0.498764 0.998913
vt 0.252834 0.999456
vt 0.254270 0.674185
vt 0.253870 0.348913
vt 0.000836 0.664946
vt 0.001236 0.334783
vt 1.0 0.335054
vt 0.995730 0.665217
vt 0.744294 0.665761
vt 0.734718 0.338043
vt 0.502055 0.001426
vt 0.499800 0.331250
vt 0.249595 0.002405
s 0
usemtl Material
f 1/1/1 5/2/1 7/3/1 3/4/1
f 4/5/2 3/4/2 7/6/2 8/7/2
f 8/8/3 7/9/3 5/10/3 6/11/3
f 6/12/4 2/13/4 4/5/4 8/14/4
f 2/13/5 1/1/5 3/4/5 4/5/5
f 6/11/6 5/10/6 1/1/6 2/13/6
